# xmcd CD database file
#
# Track frame offsets:
#	150
#	26667
#	57917
#	86302
#	121149
#	154314
#	176521
#	205086
#	231616
#	262088
#	291989
#
# Disc length: 4369 seconds
#
# Revision: 0
# Processed by: cddbd v1.5.1PL0 Copyright (c) Steve Scherf et al.
# Submitted via: CDex 1.51
#
DISCID=9c110f0b
DTITLE=Steve Waterman - Stablemates
DYEAR=1900
DGENRE=Jazz
TTITLE0=Five Spot After Dark
TTITLE1=Stablemates
TTITLE2=Mahjong
TTITLE3=Infant Eyes
TTITLE4=Whisper Not
TTITLE5=I Remember Clifford
TTITLE6=Fe Fi Fo Fum
TTITLE7=Killer Joe
TTITLE8=Footprints
TTITLE9=Children Of The Night
TTITLE10=Along Came Betty
EXTD=
EXTT0=
EXTT1=
EXTT2=
EXTT3=
EXTT4=
EXTT5=
EXTT6=
EXTT7=
EXTT8=
EXTT9=
EXTT10=
PLAYORDER=
